<svg width="40" height="40" viewBox="0 0 40 40" fill="none" xmlns="http://www.w3.org/2000/svg">
<path d="M0 20C0 8.9543 8.9543 0 20 0C31.0457 0 40 8.9543 40 20C40 31.0457 31.0457 40 20 40C8.9543 40 0 31.0457 0 20Z" fill="#0F7888"/>
<path d="M19.4408 20.5594H17.3942V22.606H19.4408V20.5594ZM22.6066 7.27246H20.56V16.2743H22.6066V7.27246ZM14.2444 14.2277H7.28912V16.2743H16.291V7.27246H14.2444V14.2277ZM17.4102 32.727H19.4568V23.7252H17.4102V32.727ZM17.4102 16.2743H19.4568V7.27246H17.4102V16.2743ZM7.27313 19.4401H16.275V17.3935H7.27313V19.4401ZM19.4408 17.3935H17.3942V19.4401H19.4408V17.3935ZM7.27313 25.7718H14.2284V32.727H16.275V23.7252H7.27313V25.7718ZM7.27313 22.6059H16.275V20.5593H7.27313V22.6059ZM23.7259 22.6059H32.7277V20.5593H23.7259V22.6059ZM25.7725 7.27246H23.7259V16.2743H32.7277V14.2277H25.7725V7.27246ZM23.7259 19.4401H32.7277V17.3935H23.7259V19.4401ZM20.576 22.6059H22.6066V20.5593H20.56L20.576 22.6059ZM20.56 32.727H22.6066V23.7252H20.56V32.727ZM23.7259 32.727H25.7725V25.7718H32.7277V23.7252H23.7259V32.727ZM20.576 19.4401H22.6066V17.3935H20.56L20.576 19.4401Z" fill="#F9FAFA"/>
</svg>
