<svg aria-hidden="true" style="position: absolute; width: 0; height: 0; overflow: hidden;" version="1.1" xmlns="http://www.w3.org/2000/svg" xmlns:xlink="http://www.w3.org/1999/xlink">
<defs>

<symbol id="icon-arrow-right" viewBox="0 0 32 32">
<path fill="none" stroke-linejoin="round" stroke-linecap="round" stroke-miterlimit="4" stroke-width="2.6667" d="M12 24l8-8-8-8"></path>
</symbol>

<symbol id="icon-arrow-left" viewBox="0 0 32 32">
<path fill="none" stroke-linejoin="round" stroke-linecap="round" stroke-miterlimit="4" stroke-width="2.6667" d="M20 24l-8-8 8-8"></path>
</symbol>

<symbol id="icon-rectangle" viewBox="0 0 32 32">
<path d="M0 0h32v32h-32v-32z"></path>
</symbol>

<symbol id="icon-arrow-down" viewBox="0 0 32 32">
<path d="M27.414 19.414l-10 10c-0.781 0.781-2.047 0.781-2.828 0l-10-10c-0.781-0.781-0.781-2.047 0-2.828s2.047-0.781 2.828 0l6.586 6.586v-19.172c0-1.105 0.895-2 2-2s2 0.895 2 2v19.172l6.586-6.586c0.39-0.39 0.902-0.586 1.414-0.586s1.024 0.195 1.414 0.586c0.781 0.781 0.781 2.047 0 2.828z"></path>
</symbol>

<symbol id="icon-knob" viewBox="0 0 32 32">
<path d="M16 0c-8.8 0-16 7.2-16 16s7.2 16 16 16c8.8 0 16-7.2 16-16s-7.2-16-16-16z"></path>
</symbol>
</defs>
</svg>
